<svg width="16" height="17" viewBox="0 0 16 17" fill="none" xmlns="http://www.w3.org/2000/svg">
<path d="M11.354 9.11666L6.35403 14.1167C6.30757 14.1631 6.25242 14.2 6.19173 14.2251C6.13103 14.2503 6.06598 14.2632 6.00028 14.2632C5.93458 14.2632 5.86953 14.2503 5.80883 14.2251C5.74813 14.2 5.69298 14.1631 5.64653 14.1167C5.60007 14.0702 5.56322 14.0151 5.53808 13.9544C5.51294 13.8937 5.5 13.8286 5.5 13.7629C5.5 13.6972 5.51294 13.6322 5.53808 13.5715C5.56322 13.5108 5.60007 13.4556 5.64653 13.4092L10.2934 8.76291L5.64653 4.11666C5.55271 4.02284 5.5 3.89559 5.5 3.76291C5.5 3.63023 5.55271 3.50298 5.64653 3.40916C5.74035 3.31534 5.8676 3.26263 6.00028 3.26263C6.13296 3.26263 6.26021 3.31534 6.35403 3.40916L11.354 8.40916C11.4005 8.4556 11.4374 8.51074 11.4626 8.57144C11.4877 8.63214 11.5007 8.6972 11.5007 8.76291C11.5007 8.82862 11.4877 8.89368 11.4626 8.95438C11.4374 9.01508 11.4005 9.07023 11.354 9.11666Z" fill="black"/>
</svg>
