<svg width="20" height="20" viewBox="0 0 20 20" fill="none" xmlns="http://www.w3.org/2000/svg">
<path d="M10.2498 6.07499C10.4165 5.92499 10.6165 5.83332 10.8332 5.83332C11.0582 5.83332 11.2498 5.92499 11.4248 6.07499C11.5832 6.24999 11.6665 6.44999 11.6665 6.66666C11.6665 6.89166 11.5832 7.08332 11.4248 7.25832C11.2498 7.41666 11.0582 7.49999 10.8332 7.49999C10.6165 7.49999 10.4165 7.41666 10.2498 7.25832C10.0915 7.08332 9.99984 6.89166 9.99984 6.66666C9.99984 6.44999 10.0915 6.24999 10.2498 6.07499ZM8.1665 9.97499C8.1665 9.97499 9.97484 8.54166 10.6332 8.48332C11.2498 8.43332 11.1248 9.14166 11.0665 9.50832L11.0582 9.55832C10.9415 9.99999 10.7998 10.5333 10.6582 11.0417C10.3415 12.2 10.0332 13.3333 10.1082 13.5417C10.1915 13.825 10.7082 13.4667 11.0832 13.2167C11.1332 13.1833 11.1748 13.15 11.2165 13.125C11.2165 13.125 11.2832 13.0583 11.3498 13.15C11.3665 13.175 11.3832 13.2 11.3998 13.2167C11.4748 13.3333 11.5165 13.375 11.4165 13.4417L11.3832 13.4583C11.1998 13.5833 10.4165 14.1333 10.0998 14.3333C9.75817 14.5583 8.44984 15.3083 8.64984 13.85C8.82484 12.825 9.05817 11.9417 9.2415 11.25C9.58317 9.99999 9.73317 9.43332 8.9665 9.92499C8.65817 10.1083 8.47484 10.225 8.3665 10.3C8.27484 10.3667 8.2665 10.3667 8.20817 10.2583L8.18317 10.2083L8.1415 10.1417C8.08317 10.0583 8.08317 10.05 8.1665 9.97499ZM18.3332 9.99999C18.3332 14.5833 14.5832 18.3333 9.99984 18.3333C5.4165 18.3333 1.6665 14.5833 1.6665 9.99999C1.6665 5.41666 5.4165 1.66666 9.99984 1.66666C14.5832 1.66666 18.3332 5.41666 18.3332 9.99999ZM16.6665 9.99999C16.6665 6.31666 13.6832 3.33332 9.99984 3.33332C6.3165 3.33332 3.33317 6.31666 3.33317 9.99999C3.33317 13.6833 6.3165 16.6667 9.99984 16.6667C13.6832 16.6667 16.6665 13.6833 16.6665 9.99999Z" fill="black"/>
</svg>
