<svg width="21" height="20" viewBox="0 0 21 20" fill="none" xmlns="http://www.w3.org/2000/svg">
<path d="M10.5 2C9.43913 2 8.42172 2.42143 7.67157 3.17157C6.92143 3.92172 6.5 4.93913 6.5 6C6.5 7.06087 6.92143 8.07828 7.67157 8.82843C8.42172 9.57857 9.43913 10 10.5 10C11.5609 10 12.5783 9.57857 13.3284 8.82843C14.0786 8.07828 14.5 7.06087 14.5 6C14.5 4.93913 14.0786 3.92172 13.3284 3.17157C12.5783 2.42143 11.5609 2 10.5 2ZM7.5 6C7.5 5.20435 7.81607 4.44129 8.37868 3.87868C8.94129 3.31607 9.70435 3 10.5 3C11.2956 3 12.0587 3.31607 12.6213 3.87868C13.1839 4.44129 13.5 5.20435 13.5 6C13.5 6.79565 13.1839 7.55871 12.6213 8.12132C12.0587 8.68393 11.2956 9 10.5 9C9.70435 9 8.94129 8.68393 8.37868 8.12132C7.81607 7.55871 7.5 6.79565 7.5 6ZM5.509 11C5.24564 10.9989 4.98466 11.0499 4.74102 11.1499C4.49739 11.2499 4.2759 11.3971 4.08926 11.5829C3.90261 11.7687 3.75448 11.9895 3.65337 12.2327C3.55225 12.4759 3.50013 12.7366 3.5 13C3.5 14.691 4.333 15.966 5.635 16.797C6.917 17.614 8.645 18 10.5 18C12.355 18 14.083 17.614 15.365 16.797C16.667 15.967 17.5 14.69 17.5 13C17.5 12.4696 17.2893 11.9609 16.9142 11.5858C16.5391 11.2107 16.0304 11 15.5 11H5.509ZM4.5 13C4.5 12.447 4.948 12 5.509 12H15.5C15.7652 12 16.0196 12.1054 16.2071 12.2929C16.3946 12.4804 16.5 12.7348 16.5 13C16.5 14.309 15.878 15.284 14.827 15.953C13.757 16.636 12.235 17 10.5 17C8.765 17 7.243 16.636 6.173 15.953C5.123 15.283 4.5 14.31 4.5 13Z" fill="black"/>
</svg>
