<svg width="20" height="20" viewBox="0 0 20 20" fill="none" xmlns="http://www.w3.org/2000/svg">
<path d="M5.20833 2.5C4.49004 2.5 3.80116 2.78534 3.29325 3.29325C2.78534 3.80116 2.5 4.49004 2.5 5.20833V6.875C2.5 7.04076 2.56585 7.19973 2.68306 7.31694C2.80027 7.43415 2.95924 7.5 3.125 7.5C3.29076 7.5 3.44973 7.43415 3.56694 7.31694C3.68415 7.19973 3.75 7.04076 3.75 6.875V5.20833C3.75 4.40333 4.40333 3.75 5.20833 3.75H6.875C7.04076 3.75 7.19973 3.68415 7.31694 3.56694C7.43415 3.44973 7.5 3.29076 7.5 3.125C7.5 2.95924 7.43415 2.80027 7.31694 2.68306C7.19973 2.56585 7.04076 2.5 6.875 2.5H5.20833ZM13.125 2.5C12.9592 2.5 12.8003 2.56585 12.6831 2.68306C12.5658 2.80027 12.5 2.95924 12.5 3.125C12.5 3.29076 12.5658 3.44973 12.6831 3.56694C12.8003 3.68415 12.9592 3.75 13.125 3.75H14.7917C15.5967 3.75 16.25 4.40333 16.25 5.20833V6.875C16.25 7.04076 16.3158 7.19973 16.4331 7.31694C16.5503 7.43415 16.7092 7.5 16.875 7.5C17.0408 7.5 17.1997 7.43415 17.3169 7.31694C17.4342 7.19973 17.5 7.04076 17.5 6.875V5.20833C17.5 4.49004 17.2147 3.80116 16.7067 3.29325C16.1988 2.78534 15.51 2.5 14.7917 2.5H13.125ZM3.75 13.125C3.75 12.9592 3.68415 12.8003 3.56694 12.6831C3.44973 12.5658 3.29076 12.5 3.125 12.5C2.95924 12.5 2.80027 12.5658 2.68306 12.6831C2.56585 12.8003 2.5 12.9592 2.5 13.125V14.7917C2.5 15.51 2.78534 16.1988 3.29325 16.7067C3.80116 17.2147 4.49004 17.5 5.20833 17.5H6.875C7.04076 17.5 7.19973 17.4342 7.31694 17.3169C7.43415 17.1997 7.5 17.0408 7.5 16.875C7.5 16.7092 7.43415 16.5503 7.31694 16.4331C7.19973 16.3158 7.04076 16.25 6.875 16.25H5.20833C4.82156 16.25 4.45063 16.0964 4.17714 15.8229C3.90365 15.5494 3.75 15.1784 3.75 14.7917V13.125ZM17.5 13.125C17.5 12.9592 17.4342 12.8003 17.3169 12.6831C17.1997 12.5658 17.0408 12.5 16.875 12.5C16.7092 12.5 16.5503 12.5658 16.4331 12.6831C16.3158 12.8003 16.25 12.9592 16.25 13.125V14.7917C16.25 15.1784 16.0964 15.5494 15.8229 15.8229C15.5494 16.0964 15.1784 16.25 14.7917 16.25H13.125C12.9592 16.25 12.8003 16.3158 12.6831 16.4331C12.5658 16.5503 12.5 16.7092 12.5 16.875C12.5 17.0408 12.5658 17.1997 12.6831 17.3169C12.8003 17.4342 12.9592 17.5 13.125 17.5H14.7917C15.51 17.5 16.1988 17.2147 16.7067 16.7067C17.2147 16.1988 17.5 15.51 17.5 14.7917V13.125ZM6.25 9.375C6.08424 9.375 5.92527 9.44085 5.80806 9.55806C5.69085 9.67527 5.625 9.83424 5.625 10C5.625 10.1658 5.69085 10.3247 5.80806 10.4419C5.92527 10.5592 6.08424 10.625 6.25 10.625H13.75C13.9158 10.625 14.0747 10.5592 14.1919 10.4419C14.3092 10.3247 14.375 10.1658 14.375 10C14.375 9.83424 14.3092 9.67527 14.1919 9.55806C14.0747 9.44085 13.9158 9.375 13.75 9.375H6.25Z" fill="black"/>
</svg>
