<svg width="24" height="24" viewBox="0 0 24 24" fill="none" xmlns="http://www.w3.org/2000/svg">
<path fill-rule="evenodd" clip-rule="evenodd" d="M12 17.7115C15.1544 17.7115 17.7115 15.1544 17.7115 12C17.7115 8.8456 15.1544 6.28846 12 6.28846C8.8456 6.28846 6.28846 8.8456 6.28846 12C6.28846 15.1544 8.8456 17.7115 12 17.7115ZM12 18.75C15.7279 18.75 18.75 15.7279 18.75 12C18.75 8.27208 15.7279 5.25 12 5.25C8.27208 5.25 5.25 8.27208 5.25 12C5.25 15.7279 8.27208 18.75 12 18.75Z" fill="#919191"/>
<path fill-rule="evenodd" clip-rule="evenodd" d="M12 23.4286C18.3118 23.4286 23.4286 18.3118 23.4286 12C23.4286 5.68817 18.3118 0.571429 12 0.571429C5.68817 0.571429 0.571429 5.68817 0.571429 12C0.571429 18.3118 5.68817 23.4286 12 23.4286ZM12 24C18.6274 24 24 18.6274 24 12C24 5.37258 18.6274 0 12 0C5.37258 0 0 5.37258 0 12C0 18.6274 5.37258 24 12 24Z" fill="#D9D9D9"/>
<path fill-rule="evenodd" clip-rule="evenodd" d="M11.4806 11.9738V8.3652C11.4806 8.07842 11.7131 7.84595 11.9999 7.84595C12.2866 7.84595 12.5191 8.07842 12.5191 8.3652V11.7006L14.957 13.1081C15.2054 13.2515 15.2905 13.5691 15.1471 13.8174C15.0037 14.0658 14.6861 14.1509 14.4378 14.0075L11.7397 12.4497C11.5651 12.349 11.4712 12.1621 11.4806 11.9738Z" fill="#919191"/>
</svg>
