<svg width="20" height="20" viewBox="0 0 20 20" fill="none" xmlns="http://www.w3.org/2000/svg">
<path d="M5.18748 4.00916C5.03031 3.85737 4.81981 3.77337 4.60131 3.77527C4.38281 3.77717 4.1738 3.86481 4.0193 4.01932C3.86479 4.17382 3.77715 4.38283 3.77525 4.60133C3.77335 4.81983 3.85735 5.03033 4.00915 5.1875L8.82165 10L4.00831 14.8125C3.92872 14.8894 3.86524 14.9813 3.82156 15.083C3.77789 15.1847 3.7549 15.294 3.75394 15.4047C3.75298 15.5153 3.77406 15.625 3.81596 15.7275C3.85786 15.8299 3.91974 15.9229 3.99798 16.0012C4.07623 16.0794 4.16927 16.1413 4.27168 16.1832C4.3741 16.2251 4.48383 16.2462 4.59448 16.2452C4.70513 16.2442 4.81448 16.2213 4.91615 16.1776C5.01782 16.1339 5.10977 16.0704 5.18665 15.9908L9.99998 11.1783L14.8125 15.9908C14.9696 16.1426 15.1802 16.2266 15.3986 16.2247C15.6171 16.2228 15.8262 16.1352 15.9807 15.9807C16.1352 15.8262 16.2228 15.6172 16.2247 15.3987C16.2266 15.1802 16.1426 14.9697 15.9908 14.8125L11.1783 10L15.9908 5.1875C16.1426 5.03033 16.2266 4.81983 16.2247 4.60133C16.2228 4.38283 16.1352 4.17382 15.9807 4.01932C15.8262 3.86481 15.6171 3.77717 15.3986 3.77527C15.1802 3.77337 14.9696 3.85737 14.8125 4.00916L9.99998 8.82166L5.18748 4.00916Z" fill="black"/>
</svg>
