<svg width="20" height="20" viewBox="0 0 20 20" fill="none" xmlns="http://www.w3.org/2000/svg">
<path d="M16.6923 7.94229L10.4423 14.1923C10.3842 14.2504 10.3153 14.2965 10.2394 14.328C10.1636 14.3594 10.0822 14.3756 10.0001 14.3756C9.91797 14.3756 9.83664 14.3594 9.76077 14.328C9.68489 14.2965 9.61596 14.2504 9.55792 14.1923L3.30792 7.94229C3.19064 7.82502 3.12476 7.66596 3.12476 7.5001C3.12476 7.33425 3.19064 7.17519 3.30792 7.05792C3.42519 6.94064 3.58425 6.87476 3.7501 6.87476C3.91596 6.87476 4.07502 6.94064 4.19229 7.05792L10.0001 12.8665L15.8079 7.05792C15.866 6.99985 15.9349 6.95378 16.0108 6.92236C16.0867 6.89093 16.168 6.87476 16.2501 6.87476C16.3322 6.87476 16.4135 6.89093 16.4894 6.92236C16.5653 6.95378 16.6342 6.99985 16.6923 7.05792C16.7504 7.11598 16.7964 7.18492 16.8278 7.26079C16.8593 7.33666 16.8755 7.41798 16.8755 7.5001C16.8755 7.58223 16.8593 7.66354 16.8278 7.73941C16.7964 7.81528 16.7504 7.88422 16.6923 7.94229Z" fill="black"/>
</svg>
