<svg width="20" height="21" viewBox="0 0 20 21" fill="none" xmlns="http://www.w3.org/2000/svg">
<g id="Icon/direction">
<path id="Vector" d="M12.9422 16.3078C13.0003 16.3659 13.0463 16.4348 13.0777 16.5107C13.1092 16.5865 13.1254 16.6679 13.1254 16.75C13.1254 16.8321 13.1092 16.9134 13.0777 16.9893C13.0463 17.0652 13.0003 17.1341 12.9422 17.1922C12.8841 17.2502 12.8152 17.2963 12.7393 17.3277C12.6634 17.3592 12.5821 17.3753 12.5 17.3753C12.4179 17.3753 12.3366 17.3592 12.2607 17.3277C12.1848 17.2963 12.1159 17.2502 12.0578 17.1922L5.80782 10.9422C5.74971 10.8841 5.70361 10.8152 5.67215 10.7393C5.6407 10.6634 5.62451 10.5821 5.62451 10.5C5.62451 10.4178 5.6407 10.3365 5.67215 10.2606C5.70361 10.1848 5.74971 10.1158 5.80782 10.0578L12.0578 3.80779C12.1751 3.69052 12.3342 3.62463 12.5 3.62463C12.6659 3.62463 12.8249 3.69052 12.9422 3.80779C13.0595 3.92507 13.1254 4.08413 13.1254 4.24998C13.1254 4.41583 13.0595 4.57489 12.9422 4.69217L7.1336 10.5L12.9422 16.3078Z" fill="black"/>
</g>
</svg>
