<svg width="20" height="20" viewBox="0 0 20 20" fill="none" xmlns="http://www.w3.org/2000/svg">
  <path
    d="M9.99967 6.66668C10.9163 6.66668 11.6663 5.91668 11.6663 5.00001C11.6663 4.08334 10.9163 3.33334 9.99967 3.33334C9.08301 3.33334 8.33301 4.08334 8.33301 5.00001C8.33301 5.91668 9.08301 6.66668 9.99967 6.66668ZM9.99967 8.33334C9.08301 8.33334 8.33301 9.08334 8.33301 10C8.33301 10.9167 9.08301 11.6667 9.99967 11.6667C10.9163 11.6667 11.6663 10.9167 11.6663 10C11.6663 9.08334 10.9163 8.33334 9.99967 8.33334ZM9.99967 13.3333C9.08301 13.3333 8.33301 14.0833 8.33301 15C8.33301 15.9167 9.08301 16.6667 9.99967 16.6667C10.9163 16.6667 11.6663 15.9167 11.6663 15C11.6663 14.0833 10.9163 13.3333 9.99967 13.3333Z"
    fill="#919191" />
</svg>