<svg width="18" height="18" viewBox="0 0 18 18" fill="none" xmlns="http://www.w3.org/2000/svg">
<path d="M2.43653 1.68746C1.81746 1.39174 1.13731 1.95746 1.3141 2.62024L2.6101 7.46289C2.64258 7.58459 2.7101 7.69408 2.80427 7.77774C2.89845 7.8614 3.01513 7.91555 3.13981 7.93346L9.49381 8.84117C9.67767 8.86689 9.67767 9.13303 9.49381 9.15939L3.14046 10.0665C3.01577 10.0844 2.89909 10.1385 2.80492 10.2222C2.71074 10.3058 2.64322 10.4153 2.61074 10.537L1.3141 15.3822C1.13731 16.0444 1.81746 16.6101 2.43653 16.315L16.2567 9.72639C16.8667 9.43581 16.8667 8.56667 16.2567 8.27546L2.43653 1.68746Z" fill="#919191"/>
</svg>
