<svg width="20" height="20" viewBox="0 0 20 20" fill="none" xmlns="http://www.w3.org/2000/svg">
<g id="Icon/share">
<path id="Vector" d="M16.4618 9.16665C16.6128 9.16665 16.7587 9.22135 16.8725 9.32062C16.9864 9.41989 17.0604 9.55702 17.0809 9.70665L17.0868 9.79165V15.625C17.087 16.3169 16.8224 16.9827 16.3473 17.4857C15.8722 17.9887 15.2226 18.2908 14.5318 18.33L14.3784 18.3341H5.21175C4.51997 18.3342 3.85439 18.0695 3.35156 17.5944C2.84872 17.1193 2.54675 16.4698 2.50758 15.7791L2.50342 15.6258V9.79165C2.50347 9.63329 2.56362 9.48086 2.67173 9.36515C2.77984 9.24944 2.92783 9.17909 3.08582 9.16829C3.2438 9.1575 3.39999 9.20708 3.52283 9.30701C3.64567 9.40694 3.726 9.54977 3.74758 9.70665L3.75342 9.79165V15.625C3.75322 15.9911 3.89076 16.3439 4.1387 16.6133C4.38665 16.8827 4.72686 17.049 5.09175 17.0791L5.21175 17.0841H14.3784C14.7445 17.0841 15.0973 16.9464 15.3665 16.6983C15.6358 16.4502 15.8018 16.1099 15.8318 15.745L15.8368 15.6258V9.79165C15.8368 9.62589 15.9026 9.46692 16.0198 9.34971C16.137 9.23249 16.296 9.16665 16.4618 9.16665ZM5.18258 6.01331L9.34675 1.84998C9.45257 1.74413 9.59287 1.67978 9.74213 1.66861C9.89139 1.65745 10.0397 1.70022 10.1601 1.78915L10.2301 1.84915L14.4009 6.01331C14.513 6.12469 14.5788 6.27441 14.585 6.43233C14.5911 6.59024 14.5372 6.74463 14.4341 6.86441C14.331 6.98419 14.1864 7.06047 14.0293 7.0779C13.8723 7.09532 13.7144 7.05259 13.5876 6.95831L13.5176 6.89748L10.4151 3.80081V13.5458C10.4151 13.6967 10.3605 13.8425 10.2614 13.9563C10.1623 14.0701 10.0254 14.1443 9.87592 14.165L9.79092 14.1708C9.63989 14.1708 9.49397 14.1161 9.38014 14.0168C9.26632 13.9176 9.19229 13.7804 9.17175 13.6308L9.16592 13.5458L9.16508 3.79831L6.06675 6.89748C5.96088 7.00355 5.82042 7.06804 5.67097 7.07921C5.52153 7.09037 5.37304 7.04747 5.25258 6.95831L5.18258 6.89748C5.07664 6.7915 5.0123 6.65099 5.00129 6.50155C4.99028 6.3521 5.03332 6.20368 5.12258 6.08331L5.18258 6.01331Z" fill="black"/>
</g>
</svg>
