<svg width="14" height="15" viewBox="0 0 14 15" fill="none" xmlns="http://www.w3.org/2000/svg">
<g id="Icon/heart">
<path id="Vector" d="M7.05841 11.3208L7.00008 11.3792L6.93591 11.3208C4.16508 8.80667 2.33341 7.14417 2.33341 5.45833C2.33341 4.29167 3.20841 3.41667 4.37508 3.41667C5.27341 3.41667 6.14841 4 6.45758 4.79333H7.54258C7.85175 4 8.72675 3.41667 9.62508 3.41667C10.7917 3.41667 11.6667 4.29167 11.6667 5.45833C11.6667 7.14417 9.83508 8.80667 7.05841 11.3208ZM9.62508 2.25C8.61008 2.25 7.63591 2.7225 7.00008 3.46333C6.36425 2.7225 5.39008 2.25 4.37508 2.25C2.57841 2.25 1.16675 3.65583 1.16675 5.45833C1.16675 7.6575 3.15008 9.46 6.15425 12.1842L7.00008 12.9542L7.84591 12.1842C10.8501 9.46 12.8334 7.6575 12.8334 5.45833C12.8334 3.65583 11.4217 2.25 9.62508 2.25Z" fill="black"/>
</g>
</svg>
